<svg width="16" height="16" viewBox="0 0 16 16" fill="none" xmlns="http://www.w3.org/2000/svg">
<path d="M6.99959 3.5C6.99959 3.36739 7.05226 3.24021 7.14603 3.14645C7.2398 3.05268 7.36698 3 7.49959 3H8.49959C8.63219 3 8.75937 3.05268 8.85314 3.14645C8.94691 3.24021 8.99959 3.36739 8.99959 3.5C8.99959 3.63261 8.94691 3.75979 8.85314 3.85355C8.75937 3.94732 8.63219 4 8.49959 4H7.49959C7.36698 4 7.2398 3.94732 7.14603 3.85355C7.05226 3.75979 6.99959 3.63261 6.99959 3.5ZM14.9446 10.725C14.6048 11.41 14.0799 11.9861 13.4296 12.3882C12.7792 12.7902 12.0292 13.0022 11.2646 13H4.73459C3.96911 13.0031 3.21809 12.7916 2.56674 12.3895C1.91539 11.9874 1.38979 11.4107 1.04959 10.725C1.01104 10.6485 0.992788 10.5634 0.996585 10.4778C1.00038 10.3922 1.0261 10.3091 1.07127 10.2363C1.11645 10.1635 1.17956 10.1036 1.25456 10.0622C1.32956 10.0208 1.41393 9.9994 1.49959 10H2.02959C2.21051 8.83191 2.71337 7.73735 3.48175 6.83914C4.25012 5.94094 5.2536 5.27463 6.37959 4.915C7.43606 4.58488 8.56811 4.58488 9.62459 4.915C10.7496 5.27541 11.7521 5.94206 12.5195 6.84021C13.287 7.73835 13.7891 8.8325 13.9696 10H14.4996C14.5848 10.0003 14.6686 10.0223 14.7429 10.064C14.8172 10.1058 14.8796 10.1658 14.9242 10.2384C14.9688 10.3111 14.9941 10.3939 14.9976 10.4791C15.0012 10.5642 14.9829 10.6489 14.9446 10.725ZM3.03459 10H12.9646C12.7834 9.04942 12.3506 8.16482 11.7113 7.43842C11.0719 6.71201 10.2495 6.17039 9.32959 5.87C8.46535 5.59888 7.53882 5.59888 6.67459 5.87C5.75377 6.16964 4.93025 6.71093 4.28999 7.43739C3.64972 8.16385 3.21617 9.04884 3.03459 10ZM13.5346 11H2.44459C2.73601 11.3165 3.09011 11.5688 3.48436 11.741C3.87862 11.9131 4.30439 12.0013 4.73459 12H11.2646C11.6948 12.0013 12.1206 11.9131 12.5148 11.741C12.9091 11.5688 13.2632 11.3165 13.5546 11H13.5346Z" fill="black"/>
</svg>
