<svg width="24" height="24" viewBox="0 0 24 24" fill="none" xmlns="http://www.w3.org/2000/svg">
<path d="M12 9.75C11.59 9.75 11.25 9.41 11.25 9V4C11.25 3.59 11.59 3.25 12 3.25C12.41 3.25 12.75 3.59 12.75 4V9C12.75 9.41 12.41 9.75 12 9.75Z" fill="black"/>
<path d="M12 21.75C7.45 21.75 3.75 18.05 3.75 13.5C3.75 10.01 5.96 6.88999 9.25 5.72999C9.64 5.58999 10.07 5.79999 10.21 6.18999C10.35 6.57999 10.14 7.00999 9.75 7.14999C7.06 8.08999 5.25 10.65 5.25 13.5C5.25 17.22 8.28 20.25 12 20.25C15.72 20.25 18.75 17.22 18.75 13.5C18.75 10.64 16.94 8.08999 14.25 7.14999C13.86 7.00999 13.65 6.57999 13.79 6.18999C13.93 5.79999 14.35 5.58999 14.75 5.72999C18.04 6.87999 20.25 10.01 20.25 13.5C20.25 18.05 16.55 21.75 12 21.75Z" fill="black"/>
</svg>
