<svg width="16" height="16" viewBox="0 0 16 16" fill="none" xmlns="http://www.w3.org/2000/svg">
<path d="M14.6463 12.2199C14.6463 12.4599 14.593 12.7066 14.4797 12.9466C14.3663 13.1866 14.2197 13.4133 14.0263 13.6266C13.6997 13.9866 13.3397 14.2466 12.933 14.4133C12.533 14.5799 12.0997 14.6666 11.633 14.6666C10.953 14.6666 10.2263 14.5066 9.45967 14.1799C8.69301 13.8533 7.92634 13.4133 7.16634 12.8599C6.39967 12.2999 5.67301 11.6799 4.97967 10.9933C4.29301 10.2999 3.67301 9.57325 3.11967 8.81325C2.57301 8.05325 2.13301 7.29325 1.81301 6.53992C1.49301 5.77992 1.33301 5.05325 1.33301 4.35992C1.33301 3.90659 1.41301 3.47325 1.57301 3.07325C1.73301 2.66659 1.98634 2.29325 2.33967 1.95992C2.76634 1.53992 3.23301 1.33325 3.72634 1.33325C3.91301 1.33325 4.09967 1.37325 4.26634 1.45325C4.43967 1.53325 4.59301 1.65325 4.71301 1.82659L6.25967 4.00659C6.37967 4.17325 6.46634 4.32659 6.52634 4.47325C6.58634 4.61325 6.61967 4.75325 6.61967 4.87992C6.61967 5.03992 6.57301 5.19992 6.47967 5.35325C6.39301 5.50658 6.26634 5.66658 6.10634 5.82658L5.59967 6.35325C5.52634 6.42658 5.49301 6.51325 5.49301 6.61992C5.49301 6.67325 5.49967 6.71992 5.51301 6.77325C5.53301 6.82658 5.55301 6.86658 5.56634 6.90658C5.68634 7.12658 5.89301 7.41325 6.18634 7.75992C6.48634 8.10659 6.80634 8.45992 7.15301 8.81325C7.51301 9.16658 7.85967 9.49325 8.21301 9.79325C8.55967 10.0866 8.84634 10.2866 9.07301 10.4066C9.10634 10.4199 9.14634 10.4399 9.19301 10.4599C9.24634 10.4799 9.29967 10.4866 9.35967 10.4866C9.47301 10.4866 9.55967 10.4466 9.63301 10.3733L10.1397 9.87325C10.3063 9.70659 10.4663 9.57992 10.6197 9.49992C10.773 9.40658 10.9263 9.35992 11.093 9.35992C11.2197 9.35992 11.353 9.38658 11.4997 9.44658C11.6463 9.50658 11.7997 9.59325 11.9663 9.70659L14.173 11.2733C14.3463 11.3933 14.4663 11.5333 14.5397 11.6999C14.6063 11.8666 14.6463 12.0333 14.6463 12.2199Z" stroke="#292D32" stroke-width="1.5" stroke-miterlimit="10"/>
</svg>
